# xmcd
#
# Track frame offsets:
#	150
#	16207
#	34773
#	64839
#	85238
#	99125
#	113691
#	158253
#	170336
#	187254
#	219359
#	258007
#	279863
#	317676
#	341520
#
# Disc length: 4761 seconds
#
# Revision: 1
# Processed by: cddbd v1.5PL3 Copyright (c) Steve Scherf et al.
# Submitted via: audiograbber 1.82.01
#
DISCID=b612970f
DTITLE=Stevie Ray Vaughan - 1983-07-11 - El Mocambo, Toronto, Ontario, Canada
DYEAR=1900
DGENRE=
TTITLE0=Stevie Ray Vaughan - Testify
TTITLE1=Stevie Ray Vaughan - So Excited
TTITLE2=Stevie Ray Vaughan - Voodoo Chile
TTITLE3=Stevie Ray Vaughan - Pride and Joy
TTITLE4=Stevie Ray Vaughan - Tell Me
TTITLE5=Stevie Ray Vaughan - Mary Had a Little Lamb
TTITLE6=Stevie Ray Vaughan - Texas Flood
TTITLE7=Stevie Ray Vaughan - Love Struck Baby
TTITLE8=Stevie Ray Vaughan - Hug You Squeeze You
TTITLE9=Stevie Ray Vaughan - Third Stone From the Sun
TTITLE10=Stevie Ray Vaughan - Lenny
TTITLE11=Stevie Ray Vaughan - Wham
TTITLE12=Stevie Ray Vaughan - Little Wing
TTITLE13=Stevie Ray Vaughan - You'll Be Mine
TTITLE14=Stevie Ray Vaughan - Rude Mood
EXTD=
EXTT0=
EXTT1=
EXTT2=
EXTT3=
EXTT4=
EXTT5=
EXTT6=
EXTT7=
EXTT8=
EXTT9=
EXTT10=
EXTT11=
EXTT12=
EXTT13=
EXTT14=
PLAYORDER=
